<?xml version="1.0" standalone="yes"?><svg xmlns="http://www.w3.org/2000/svg" version="1.1" width="328" height="328" viewBox="0 0 328 328" shape-rendering="crispEdges"><rect x="0" y="0" width="328" height="328" fill="#fff"/><path fill="#000" d="M32 32h8v8H32V32M40 32h8v8H40V32M48 32h8v8H48V32M56 32h8v8H56V32M64 32h8v8H64V32M72 32h8v8H72V32M80 32h8v8H80V32M96 32h8v8H96V32M112 32h8v8H112V32M136 32h8v8H136V32M144 32h8v8H144V32M160 32h8v8H160V32M168 32h8v8H168V32M176 32h8v8H176V32M208 32h8v8H208V32M240 32h8v8H240V32M248 32h8v8H248V32M256 32h8v8H256V32M264 32h8v8H264V32M272 32h8v8H272V32M280 32h8v8H280V32M288 32h8v8H288V32M32 40h8v8H32V40M80 40h8v8H80V40M96 40h8v8H96V40M120 40h8v8H120V40M136 40h8v8H136V40M144 40h8v8H144V40M160 40h8v8H160V40M176 40h8v8H176V40M184 40h8v8H184V40M240 40h8v8H240V40M288 40h8v8H288V40M32 48h8v8H32V48M48 48h8v8H48V48M56 48h8v8H56V48M64 48h8v8H64V48M80 48h8v8H80V48M96 48h8v8H96V48M120 48h8v8H120V48M136 48h8v8H136V48M144 48h8v8H144V48M160 48h8v8H160V48M184 48h8v8H184V48M200 48h8v8H200V48M240 48h8v8H240V48M256 48h8v8H256V48M264 48h8v8H264V48M272 48h8v8H272V48M288 48h8v8H288V48M32 56h8v8H32V56M48 56h8v8H48V56M56 56h8v8H56V56M64 56h8v8H64V56M80 56h8v8H80V56M104 56h8v8H104V56M112 56h8v8H112V56M120 56h8v8H120V56M128 56h8v8H128V56M144 56h8v8H144V56M160 56h8v8H160V56M176 56h8v8H176V56M192 56h8v8H192V56M200 56h8v8H200V56M224 56h8v8H224V56M240 56h8v8H240V56M256 56h8v8H256V56M264 56h8v8H264V56M272 56h8v8H272V56M288 56h8v8H288V56M32 64h8v8H32V64M48 64h8v8H48V64M56 64h8v8H56V64M64 64h8v8H64V64M80 64h8v8H80V64M96 64h8v8H96V64M104 64h8v8H104V64M128 64h8v8H128V64M136 64h8v8H136V64M152 64h8v8H152V64M160 64h8v8H160V64M168 64h8v8H168V64M200 64h8v8H200V64M240 64h8v8H240V64M256 64h8v8H256V64M264 64h8v8H264V64M272 64h8v8H272V64M288 64h8v8H288V64M32 72h8v8H32V72M80 72h8v8H80V72M120 72h8v8H120V72M128 72h8v8H128V72M136 72h8v8H136V72M144 72h8v8H144V72M152 72h8v8H152V72M160 72h8v8H160V72M176 72h8v8H176V72M184 72h8v8H184V72M200 72h8v8H200V72M208 72h8v8H208V72M216 72h8v8H216V72M224 72h8v8H224V72M240 72h8v8H240V72M288 72h8v8H288V72M32 80h8v8H32V80M40 80h8v8H40V80M48 80h8v8H48V80M56 80h8v8H56V80M64 80h8v8H64V80M72 80h8v8H72V80M80 80h8v8H80V80M96 80h8v8H96V80M112 80h8v8H112V80M128 80h8v8H128V80M144 80h8v8H144V80M160 80h8v8H160V80M176 80h8v8H176V80M192 80h8v8H192V80M208 80h8v8H208V80M224 80h8v8H224V80M240 80h8v8H240V80M248 80h8v8H248V80M256 80h8v8H256V80M264 80h8v8H264V80M272 80h8v8H272V80M280 80h8v8H280V80M288 80h8v8H288V80M128 88h8v8H128V88M136 88h8v8H136V88M152 88h8v8H152V88M160 88h8v8H160V88M176 88h8v8H176V88M32 96h8v8H32V96M56 96h8v8H56V96M64 96h8v8H64V96M72 96h8v8H72V96M80 96h8v8H80V96M88 96h8v8H88V96M96 96h8v8H96V96M112 96h8v8H112V96M136 96h8v8H136V96M144 96h8v8H144V96M208 96h8v8H208V96M232 96h8v8H232V96M256 96h8v8H256V96M272 96h8v8H272V96M280 96h8v8H280V96M288 96h8v8H288V96M32 104h8v8H32V104M40 104h8v8H40V104M48 104h8v8H48V104M56 104h8v8H56V104M64 104h8v8H64V104M96 104h8v8H96V104M104 104h8v8H104V104M120 104h8v8H120V104M136 104h8v8H136V104M144 104h8v8H144V104M152 104h8v8H152V104M168 104h8v8H168V104M176 104h8v8H176V104M184 104h8v8H184V104M200 104h8v8H200V104M208 104h8v8H208V104M216 104h8v8H216V104M256 104h8v8H256V104M264 104h8v8H264V104M272 104h8v8H272V104M32 112h8v8H32V112M56 112h8v8H56V112M72 112h8v8H72V112M80 112h8v8H80V112M112 112h8v8H112V112M120 112h8v8H120V112M136 112h8v8H136V112M152 112h8v8H152V112M160 112h8v8H160V112M192 112h8v8H192V112M200 112h8v8H200V112M208 112h8v8H208V112M216 112h8v8H216V112M224 112h8v8H224V112M232 112h8v8H232V112M256 112h8v8H256V112M264 112h8v8H264V112M272 112h8v8H272V112M288 112h8v8H288V112M40 120h8v8H40V120M64 120h8v8H64V120M72 120h8v8H72V120M88 120h8v8H88V120M96 120h8v8H96V120M104 120h8v8H104V120M136 120h8v8H136V120M176 120h8v8H176V120M192 120h8v8H192V120M216 120h8v8H216V120M224 120h8v8H224V120M232 120h8v8H232V120M240 120h8v8H240V120M248 120h8v8H248V120M272 120h8v8H272V120M280 120h8v8H280V120M32 128h8v8H32V128M40 128h8v8H40V128M56 128h8v8H56V128M72 128h8v8H72V128M80 128h8v8H80V128M88 128h8v8H88V128M104 128h8v8H104V128M112 128h8v8H112V128M120 128h8v8H120V128M136 128h8v8H136V128M152 128h8v8H152V128M168 128h8v8H168V128M192 128h8v8H192V128M240 128h8v8H240V128M248 128h8v8H248V128M280 128h8v8H280V128M40 136h8v8H40V136M48 136h8v8H48V136M56 136h8v8H56V136M64 136h8v8H64V136M72 136h8v8H72V136M120 136h8v8H120V136M136 136h8v8H136V136M144 136h8v8H144V136M176 136h8v8H176V136M184 136h8v8H184V136M192 136h8v8H192V136M200 136h8v8H200V136M216 136h8v8H216V136M232 136h8v8H232V136M248 136h8v8H248V136M264 136h8v8H264V136M64 144h8v8H64V144M72 144h8v8H72V144M80 144h8v8H80V144M104 144h8v8H104V144M128 144h8v8H128V144M152 144h8v8H152V144M168 144h8v8H168V144M176 144h8v8H176V144M184 144h8v8H184V144M192 144h8v8H192V144M224 144h8v8H224V144M240 144h8v8H240V144M264 144h8v8H264V144M272 144h8v8H272V144M32 152h8v8H32V152M40 152h8v8H40V152M56 152h8v8H56V152M64 152h8v8H64V152M104 152h8v8H104V152M112 152h8v8H112V152M160 152h8v8H160V152M184 152h8v8H184V152M192 152h8v8H192V152M208 152h8v8H208V152M216 152h8v8H216V152M224 152h8v8H224V152M232 152h8v8H232V152M256 152h8v8H256V152M264 152h8v8H264V152M272 152h8v8H272V152M288 152h8v8H288V152M32 160h8v8H32V160M40 160h8v8H40V160M56 160h8v8H56V160M80 160h8v8H80V160M96 160h8v8H96V160M112 160h8v8H112V160M120 160h8v8H120V160M128 160h8v8H128V160M144 160h8v8H144V160M152 160h8v8H152V160M192 160h8v8H192V160M208 160h8v8H208V160M216 160h8v8H216V160M224 160h8v8H224V160M232 160h8v8H232V160M240 160h8v8H240V160M248 160h8v8H248V160M256 160h8v8H256V160M272 160h8v8H272V160M48 168h8v8H48V168M88 168h8v8H88V168M96 168h8v8H96V168M104 168h8v8H104V168M112 168h8v8H112V168M120 168h8v8H120V168M128 168h8v8H128V168M144 168h8v8H144V168M152 168h8v8H152V168M168 168h8v8H168V168M176 168h8v8H176V168M192 168h8v8H192V168M208 168h8v8H208V168M240 168h8v8H240V168M256 168h8v8H256V168M272 168h8v8H272V168M288 168h8v8H288V168M32 176h8v8H32V176M40 176h8v8H40V176M48 176h8v8H48V176M64 176h8v8H64V176M80 176h8v8H80V176M88 176h8v8H88V176M96 176h8v8H96V176M128 176h8v8H128V176M152 176h8v8H152V176M160 176h8v8H160V176M168 176h8v8H168V176M176 176h8v8H176V176M184 176h8v8H184V176M200 176h8v8H200V176M216 176h8v8H216V176M224 176h8v8H224V176M248 176h8v8H248V176M264 176h8v8H264V176M272 176h8v8H272V176M288 176h8v8H288V176M48 184h8v8H48V184M64 184h8v8H64V184M72 184h8v8H72V184M88 184h8v8H88V184M96 184h8v8H96V184M104 184h8v8H104V184M128 184h8v8H128V184M136 184h8v8H136V184M144 184h8v8H144V184M160 184h8v8H160V184M208 184h8v8H208V184M240 184h8v8H240V184M256 184h8v8H256V184M264 184h8v8H264V184M272 184h8v8H272V184M280 184h8v8H280V184M288 184h8v8H288V184M40 192h8v8H40V192M56 192h8v8H56V192M64 192h8v8H64V192M80 192h8v8H80V192M88 192h8v8H88V192M96 192h8v8H96V192M104 192h8v8H104V192M112 192h8v8H112V192M120 192h8v8H120V192M128 192h8v8H128V192M144 192h8v8H144V192M152 192h8v8H152V192M160 192h8v8H160V192M176 192h8v8H176V192M192 192h8v8H192V192M248 192h8v8H248V192M264 192h8v8H264V192M280 192h8v8H280V192M32 200h8v8H32V200M40 200h8v8H40V200M56 200h8v8H56V200M104 200h8v8H104V200M112 200h8v8H112V200M128 200h8v8H128V200M136 200h8v8H136V200M168 200h8v8H168V200M184 200h8v8H184V200M208 200h8v8H208V200M216 200h8v8H216V200M232 200h8v8H232V200M248 200h8v8H248V200M256 200h8v8H256V200M272 200h8v8H272V200M32 208h8v8H32V208M48 208h8v8H48V208M56 208h8v8H56V208M72 208h8v8H72V208M80 208h8v8H80V208M104 208h8v8H104V208M112 208h8v8H112V208M136 208h8v8H136V208M168 208h8v8H168V208M176 208h8v8H176V208M216 208h8v8H216V208M232 208h8v8H232V208M240 208h8v8H240V208M248 208h8v8H248V208M256 208h8v8H256V208M280 208h8v8H280V208M288 208h8v8H288V208M32 216h8v8H32V216M48 216h8v8H48V216M56 216h8v8H56V216M64 216h8v8H64V216M128 216h8v8H128V216M136 216h8v8H136V216M144 216h8v8H144V216M152 216h8v8H152V216M168 216h8v8H168V216M184 216h8v8H184V216M192 216h8v8H192V216M216 216h8v8H216V216M224 216h8v8H224V216M232 216h8v8H232V216M240 216h8v8H240V216M256 216h8v8H256V216M272 216h8v8H272V216M280 216h8v8H280V216M288 216h8v8H288V216M32 224h8v8H32V224M40 224h8v8H40V224M48 224h8v8H48V224M56 224h8v8H56V224M64 224h8v8H64V224M72 224h8v8H72V224M80 224h8v8H80V224M88 224h8v8H88V224M96 224h8v8H96V224M104 224h8v8H104V224M136 224h8v8H136V224M160 224h8v8H160V224M192 224h8v8H192V224M216 224h8v8H216V224M224 224h8v8H224V224M232 224h8v8H232V224M240 224h8v8H240V224M248 224h8v8H248V224M256 224h8v8H256V224M280 224h8v8H280V224M288 224h8v8H288V224M96 232h8v8H96V232M112 232h8v8H112V232M128 232h8v8H128V232M144 232h8v8H144V232M152 232h8v8H152V232M160 232h8v8H160V232M168 232h8v8H168V232M176 232h8v8H176V232M192 232h8v8H192V232M200 232h8v8H200V232M216 232h8v8H216V232M224 232h8v8H224V232M256 232h8v8H256V232M272 232h8v8H272V232M32 240h8v8H32V240M40 240h8v8H40V240M48 240h8v8H48V240M56 240h8v8H56V240M64 240h8v8H64V240M72 240h8v8H72V240M80 240h8v8H80V240M96 240h8v8H96V240M104 240h8v8H104V240M112 240h8v8H112V240M120 240h8v8H120V240M128 240h8v8H128V240M136 240h8v8H136V240M152 240h8v8H152V240M168 240h8v8H168V240M184 240h8v8H184V240M192 240h8v8H192V240M216 240h8v8H216V240M224 240h8v8H224V240M240 240h8v8H240V240M256 240h8v8H256V240M272 240h8v8H272V240M32 248h8v8H32V248M80 248h8v8H80V248M96 248h8v8H96V248M104 248h8v8H104V248M112 248h8v8H112V248M120 248h8v8H120V248M136 248h8v8H136V248M144 248h8v8H144V248M160 248h8v8H160V248M168 248h8v8H168V248M176 248h8v8H176V248M208 248h8v8H208V248M216 248h8v8H216V248M224 248h8v8H224V248M256 248h8v8H256V248M264 248h8v8H264V248M272 248h8v8H272V248M280 248h8v8H280V248M288 248h8v8H288V248M32 256h8v8H32V256M48 256h8v8H48V256M56 256h8v8H56V256M64 256h8v8H64V256M80 256h8v8H80V256M96 256h8v8H96V256M104 256h8v8H104V256M112 256h8v8H112V256M120 256h8v8H120V256M128 256h8v8H128V256M144 256h8v8H144V256M152 256h8v8H152V256M160 256h8v8H160V256M168 256h8v8H168V256M184 256h8v8H184V256M192 256h8v8H192V256M208 256h8v8H208V256M216 256h8v8H216V256M224 256h8v8H224V256M232 256h8v8H232V256M240 256h8v8H240V256M248 256h8v8H248V256M256 256h8v8H256V256M280 256h8v8H280V256M288 256h8v8H288V256M32 264h8v8H32V264M48 264h8v8H48V264M56 264h8v8H56V264M64 264h8v8H64V264M80 264h8v8H80V264M96 264h8v8H96V264M104 264h8v8H104V264M128 264h8v8H128V264M160 264h8v8H160V264M168 264h8v8H168V264M176 264h8v8H176V264M184 264h8v8H184V264M192 264h8v8H192V264M200 264h8v8H200V264M224 264h8v8H224V264M232 264h8v8H232V264M248 264h8v8H248V264M272 264h8v8H272V264M280 264h8v8H280V264M288 264h8v8H288V264M32 272h8v8H32V272M48 272h8v8H48V272M56 272h8v8H56V272M64 272h8v8H64V272M80 272h8v8H80V272M120 272h8v8H120V272M144 272h8v8H144V272M152 272h8v8H152V272M168 272h8v8H168V272M184 272h8v8H184V272M192 272h8v8H192V272M216 272h8v8H216V272M232 272h8v8H232V272M248 272h8v8H248V272M256 272h8v8H256V272M272 272h8v8H272V272M280 272h8v8H280V272M288 272h8v8H288V272M32 280h8v8H32V280M80 280h8v8H80V280M112 280h8v8H112V280M136 280h8v8H136V280M144 280h8v8H144V280M176 280h8v8H176V280M184 280h8v8H184V280M208 280h8v8H208V280M232 280h8v8H232V280M240 280h8v8H240V280M248 280h8v8H248V280M256 280h8v8H256V280M264 280h8v8H264V280M272 280h8v8H272V280M280 280h8v8H280V280M288 280h8v8H288V280M32 288h8v8H32V288M40 288h8v8H40V288M48 288h8v8H48V288M56 288h8v8H56V288M64 288h8v8H64V288M72 288h8v8H72V288M80 288h8v8H80V288M96 288h8v8H96V288M104 288h8v8H104V288M112 288h8v8H112V288M128 288h8v8H128V288M152 288h8v8H152V288M160 288h8v8H160V288M168 288h8v8H168V288M184 288h8v8H184V288M216 288h8v8H216V288M224 288h8v8H224V288M232 288h8v8H232V288M248 288h8v8H248V288M256 288h8v8H256V288"/></svg>
